# xmcd
#
# Track frame offsets:
#	150
#	11727
#	29371
#	42841
#	61021
#	81096
#	96112
#	99940
#	121289
#	131904
#
# Disc length: 2446 seconds
#
# Revision: 0
# Processed by: cddbd v1.5.2PL0 Copyright (c) Steve Scherf et al.
# Submitted via: dBpowerAMP V4.0
#
DISCID=77098c0a
DTITLE=Same Brain Entertainment - The Mixtape Volume 1
DYEAR=1900
DGENRE=
TTITLE0=Gangsters With Guns feat Red Master
TTITLE1=Leviticus feat Crucifix, VEX, Slinga, Red Master
TTITLE2=Arkham feat Crucifix
TTITLE3=Numbers feat VEX, Slinga, Red Master, Tsunami, Crucifix
TTITLE4=Focus On That feat Slinga
TTITLE5=Genesis feat Tsunami, Crucifix, Red Master, VEX
TTITLE6=Red and Vex Interlude feat Red Master, VEX
TTITLE7=Deuteronomy feat Slinga, Crucifix, Red Master
TTITLE8=The Melon Burst feat VEX
TTITLE9=Exodus feat Red Master, Crucifix, Slinga, VEX
EXTD=flat4 done this\nsamebrain.co.uk
EXTT0=
EXTT1=
EXTT2=
EXTT3=
EXTT4=
EXTT5=
EXTT6=
EXTT7=
EXTT8=
EXTT9=
PLAYORDER=
